<svg xmlns="http://www.w3.org/2000/svg" viewBox="0 0 1440 320"><path fill="#027bb3" fill-opacity="1" d="M0,32L14.1,53.3C28.2,75,56,117,85,165.3C112.9,213,141,267,169,245.3C197.6,224,226,128,254,112C282.4,96,311,160,339,154.7C367.1,149,395,75,424,53.3C451.8,32,480,64,508,64C536.5,64,565,32,593,58.7C621.2,85,649,171,678,186.7C705.9,203,734,149,762,106.7C790.6,64,819,32,847,48C875.3,64,904,128,932,160C960,192,988,192,1016,202.7C1044.7,213,1073,235,1101,234.7C1129.4,235,1158,213,1186,186.7C1214.1,160,1242,128,1271,101.3C1298.8,75,1327,53,1355,42.7C1383.5,32,1412,32,1426,32L1440,32L1440,320L1425.9,320C1411.8,320,1384,320,1355,320C1327.1,320,1299,320,1271,320C1242.4,320,1214,320,1186,320C1157.6,320,1129,320,1101,320C1072.9,320,1045,320,1016,320C988.2,320,960,320,932,320C903.5,320,875,320,847,320C818.8,320,791,320,762,320C734.1,320,706,320,678,320C649.4,320,621,320,593,320C564.7,320,536,320,508,320C480,320,452,320,424,320C395.3,320,367,320,339,320C310.6,320,282,320,254,320C225.9,320,198,320,169,320C141.2,320,113,320,85,320C56.5,320,28,320,14,320L0,320Z"></path></svg>